# AST/ASF file generated using VICON BodyLanguage
# -----------------------------------------------
:version 1.10
:name VICON
:units
  mass 1.0
  length 0.45
  angle deg
:documentation
   .ast/.asf automatically generated from VICON data using
   VICON BodyBuilder and BodyLanguage model FoxedUp or BRILLIANT.MOD
:root
   order TX TY TZ RX RY RZ
   axis XYZ
   position 0 0 0  
   orientation 0 0 0 
:bonedata
  begin
     id 1 
     name lhipjoint
     direction 0.661853 -0.702389 0.261917 
     length 2.64193 
     axis 0 0 0  XYZ
  end
  begin
     id 2 
     name lfemur
     direction 0.34202 -0.939693 0  
     length 7.01722  
     axis 0 0 20  XYZ
    dof rx ry rz
    limits (-160.0 20.0)
           (-70.0 70.0)
           (-60.0 70.0)
  end
  begin
     id 3 
     name ltibia
     direction 0.34202 -0.939693 0   
     length 8.25008   
     axis 0 0 20   XYZ
    dof rx
    limits (-10.0 170.0)
  end
  begin
     id 4 
     name lfoot
     direction 0.0709916 -0.195048 0.978221   
     length 2.31941   
     axis -90 7.62852e-016 20   XYZ
    dof rx rz
    limits (-45.0 90.0)
           (-70.0 20.0)
  end
  begin
     id 5 
     name ltoes
     direction 1.53586e-011 -4.22017e-011 1   
     length 1.16486   
     axis -90 7.62852e-016 20   XYZ
    dof rx
    limits (-90.0 20.0)
  end
  begin
     id 6 
     name rhipjoint
     direction -0.638185 -0.721362 0.268992   
     length 2.57244  
     axis 0 0 0  XYZ 
  end
  begin
     id 7 
     name rfemur
     direction -0.34202 -0.939693 0   
     length 7.07017   
     axis 0 0 -20   XYZ
    dof rx ry rz
    limits (-160.0 20.0)
           (-70.0 70.0)
           (-70.0 60.0)
  end
  begin
     id 8 
     name rtibia
     direction -0.34202 -0.939693 0   
     length 8.20386   
     axis 0 0 -20   XYZ
    dof rx
    limits (-10.0 170.0)
 end
 begin
     id 9 
     name rfoot
     direction -0.0822429 -0.225961 0.970658   
     length 2.32215  
     axis -90 -7.62852e-016 -20   XYZ
    dof rx rz
    limits (-45.0 90.0)
           (-20.0 70.0)
  end
  begin
     id 10 
     name rtoes
     direction -1.53597e-011 -4.21689e-011 1   
     length 1.16333   
     axis -90 -7.62852e-016 -20   XYZ
    dof rx
    limits (-90.0 20.0)
  end
  begin
     id 11 
     name lowerback
     direction -0.0131557 0.998589 -0.0514484   
     length 2.14993   
     axis 0 0 0   XYZ
    dof rx ry rz
    limits (-20.0 45.0)
           (-30.0 30.0)
           (-30.0 30.0)
  end
  begin
     id 12 
     name upperback
     direction -0.000776481 0.999993 0.00352685   
     length 2.15301   
     axis 0 0 0   XYZ
    dof rx ry rz
    limits (-20.0 45.0)
           (-30.0 30.0)
           (-30.0 30.0)
  end
  begin
     id 13 
     name thorax
     direction 0.00438186 0.999609 0.0276143   
     length 2.15424   
     axis 0 0 0   XYZ
    dof rx ry rz
    limits (-20.0 45.0)
           (-30.0 30.0)
           (-30.0 30.0)
  end
  begin
     id 14 
     name lowerneck
     direction -0.0488006 0.998094 0.0377807   
     length 1.90481   
     axis 0 0 0   XYZ
    dof rx ry rz
    limits (-20.0 45.0)
           (-30.0 30.0)
           (-30.0 30.0)
  end
  begin
     id 15 
     name upperneck
     direction 0.0443769 0.990702 -0.12861   
     length 1.91305   
     axis 0 0 0   XYZ
    dof rx ry rz
    limits (-20.0 45.0)
           (-30.0 30.0)
           (-30.0 30.0)
  end
  begin
     id 16
     name head
     direction 0.0165599 0.998647 -0.0492982  
     length 1.92369  
     axis 0 0 0   XYZ
    dof rx ry rz
    limits (-20.0 45.0)
           (-30.0 30.0)
           (-30.0 30.0)
  end
  begin
     id 17 
     name lclavicle
     direction 0.911936 0.410197 -0.0105506  
     length 3.52622  
     axis 0 0 0   XYZ
    dof ry rz
    limits (-20.0 10.0)
           (0.0 20.0)
  end
  begin
     id 18 
     name lhumerus
     direction 1 -4.48974e-011 -2.48591e-028   
     length 5.47651   
     axis 180 -30 -90   XYZ
    dof rx ry rz
    limits (-60.0 90.0)
           (-90.0 90.0)
           (-90.0 90.0)
  end
  begin
     id 19
     name lradius
     direction 1 -4.48938e-011 -4.40099e-027   
     length 3.09058   
     axis 180 -30 -90   XYZ
    dof rx
    limits (-10.0 170.0)
  end
  begin
     id 20
     name lwrist
     direction 1 -4.49042e-011 -2.99852e-027   
     length 1.54529   
     axis 1.95339e-015 90 90   XYZ
    dof ry
    limits (-180.0 0.0)
 end
  begin
     id 21 
     name lhand
     direction 1 -4.48815e-011 -5.98193e-027   
     length 0.771611   
     axis 3.82337e-015 90 90   XYZ
    dof rx rz
    limits (-90.0 90.0)
           (-45.0 45.0)
  end
  begin
     id 22 
     name lfingers
     direction 1 -4.49034e-011 -1.1993e-026   
     length 0.622093   
     axis 7.64668e-015 90 90   XYZ
    dof rx
    limits (0.0 90.0)
  end
  begin
     id 23
     name lthumb
     direction 0.707107 -6.34867e-011 0.707107   
     length 0.893204   
     axis -90 45 -1.62303e-014   XYZ
    dof rx rz
    limits (-45.0 45.0)
           (-45.0 45.0)
  end
  begin
     id 24 
     name rclavicle
     direction -0.93442 0.355634 -0.0195692   
     length 3.62463  
     axis 0 0 0   XYZ 
    dof ry rz
    limits (-10.0 20.0)
           (-20.0 0.0)
  end
  begin
     id 25 
     name rhumerus
     direction -1 -4.48957e-011 -1.19147e-027  
     length 5.14182   
     axis 180 30 90   XYZ
    dof rx ry rz
    limits (-90.0 60.0)
           (-90.0 90.0)
           (-90.0 90.0)
  end
  begin
     id 26 
     name rradius
     direction -1 -4.48952e-011 -3.81062e-027   
     length 3.35565   
     axis 180 30 90   XYZ
    dof rx
    limits (-10.0 170.0)
  end
  begin
     id 27 
     name rwrist
     direction -1 -4.48973e-011 -2.99621e-027   
     length 1.67782   
     axis 1.95339e-015 -90 -90   XYZ
    dof ry
    limits (-180.0 0.0)
  end
  begin
     id 28
     name rhand
     direction -1 -4.48895e-011 -5.98727e-027   
     length 0.801042   
     axis 3.82337e-015 -90 -90   XYZ
    dof rx rz
    limits (-90.0 90.0)
           (-45.0 45.0)
  end
  begin
     id 29
     name rfingers
     direction -1 -4.49065e-011 -1.19972e-026   
     length 0.645821   
     axis 7.64668e-015 -90 -90   XYZ
    dof rx
    limits (0.0 90.0)
  end
  begin
     id 30
     name rthumb
     direction -0.707107 -6.34957e-011 0.707107   
     length 0.927273   
     axis -90 -45 1.62303e-014   XYZ
    dof rx rz
    limits (-45.0 45.0)
           (-45.0 45.0)
  end
:hierarchy
  begin
    root lhipjoint rhipjoint lowerback
    lhipjoint lfemur
    lfemur ltibia
    ltibia lfoot
    lfoot ltoes
    rhipjoint rfemur
    rfemur rtibia
    rtibia rfoot
    rfoot rtoes
    lowerback upperback
    upperback thorax
    thorax lowerneck lclavicle rclavicle
    lowerneck upperneck
    upperneck head
    lclavicle lhumerus
    lhumerus lradius
    lradius lwrist
    lwrist lhand lthumb
    lhand lfingers
    rclavicle rhumerus
    rhumerus rradius
    rradius rwrist
    rwrist rhand rthumb
    rhand rfingers
  end

#!OML:ASF E:\Style4\Style4.ASF
:FULLY-SPECIFIED
:DEGREES
417
root 0.283154 17.41 -2.46873 2.40358 -5.04084 7.16067
lowerback 14.1324 2.80259 -1.91169
upperback 9.34437 3.46322 -5.20759
thorax 2.20912 1.8131 -4.81295
lowerneck 9.7789 -5.40255 -6.24162
upperneck 9.40598 -7.92096 5.7568
head 1.87734 -4.07517 3.04458
rclavicle -1.68967e-014 2.0276e-014
rhumerus 63.4892 52.6217 -5.41974
rradius 121.652
rwrist -88.8446
rhand 4.0761 -1.71399
rfingers 7.12502
rthumb 29.4884 -29.3927
lclavicle -1.68967e-014 2.0276e-014
lhumerus 38.9498 36.7421 11.0901
lradius 115.284
lwrist 71.991
lhand 17.8377 27.6601
lfingers 7.12502
lthumb 42.5156 52.075
rfemur -28.241 3.51 10.8268
rtibia 46.1956
rfoot -19.543 -10.9635
rtoes -11.2323
lfemur -21.5154 2.68934 -27.3405
ltibia 37.1686
lfoot -18.6678 8.44668
ltoes -16.5946
418
root 0.265392 17.4203 -2.46238 2.5253 -4.91165 7.06769
lowerback 14.0707 2.9684 -1.85618
upperback 9.30343 3.68956 -4.97892
thorax 2.19927 1.92193 -4.62412
lowerneck 9.88246 -5.62276 -6.43405
upperneck 9.43297 -8.21875 5.56574
head 1.89007 -4.2298 3.01747
rclavicle -4.27387e-015 -1.43125e-014
rhumerus 63.8156 52.2534 -5.48375
rradius 121.546
rwrist -88.8387
rhand 4.79499 -1.79197
rfingers 7.12502
rthumb 30.1744 -29.3475
lclavicle -4.27387e-015 -1.43125e-014
lhumerus 39.0967 37.6838 10.6678
lradius 114.426
lwrist 72.5377
lhand 19.9544 28.3301
lfingers 7.12502
lthumb 44.4926 52.0268
rfemur -28.1759 3.49416 10.9779
rtibia 46.0227
rfoot -19.6572 -10.8201
rtoes -10.0577
lfemur -21.5212 2.48663 -27.1823
ltibia 37.0034
lfoot -18.6165 8.49212
ltoes -16.4229
419
root 0.24701 17.4303 -2.45633 2.58448 -4.80811 7.04555
lowerback 14.1298 3.12959 -1.84305
upperback 9.22258 3.89619 -4.79807
thorax 2.08124 2.01974 -4.46886
lowerneck 9.97955 -5.88699 -6.69426
upperneck 9.5539 -8.58607 5.42757
head 1.94703 -4.42094 3.01925
rclavicle -4.62174e-014 3.47873e-014
rhumerus 64.1368 52.0147 -5.68229
rradius 121.421
rwrist -88.7565
rhand 5.63986 -1.78343
rfingers 7.12502
rthumb 30.9801 -29.1887
lclavicle -4.62174e-014 3.47873e-014
lhumerus 39.5935 38.4254 10.3744
lradius 113.427
lwrist 73.0995
lhand 21.8772 29.6808
lfingers 7.12502
lthumb 46.2797 52.6579
rfemur -28.0792 3.5307 11.0487
rtibia 45.8422
rfoot -19.6779 -10.8596
rtoes -9.73987
lfemur -21.4572 2.33278 -27.0981
ltibia 36.8258
lfoot -18.4769 8.60771
ltoes -16.779
420
root 0.230742 17.439 -2.44964 2.66344 -4.72906 7.04454
lowerback 14.0551 3.28699 -1.88647
upperback 9.20591 4.10195 -4.56626
thorax 2.09346 2.1137 -4.2183
lowerneck 10.022 -6.11205 -6.93474
upperneck 9.59507 -8.88732 5.15355
head 1.97351 -4.57863 2.96944
rclavicle -4.02042e-014 2.93207e-014
rhumerus 64.5572 51.7337 -5.80024
rradius 121.253
rwrist -88.563
rhand 6.91463 -1.66259
rfingers 7.12502
rthumb 32.1944 -28.8293
lclavicle -4.02042e-014 2.93207e-014
lhumerus 40.0957 39.2651 10.1639
lradius 112.347
lwrist 73.6534
lhand 23.6822 30.8003
lfingers 7.12502
lthumb 47.9486 53.0371
rfemur -27.9935 3.56688 11.0828
rtibia 45.6332
rfoot -19.7042 -10.8722
rtoes -9.27906
lfemur -21.4246 2.23225 -27.0425
ltibia 36.6643
lfoot -18.3691 8.67993
ltoes -17.0395
421
root 0.215635 17.4488 -2.44336 2.73528 -4.63243 7.01147
lowerback 14.0092 3.43904 -1.85384
upperback 9.18705 4.30733 -4.31254
thorax 2.08969 2.21022 -3.9895
lowerneck 10.0433 -6.29485 -7.11254
upperneck 9.62263 -9.12022 4.78233
head 1.9848 -4.70054 2.87446
rclavicle 7.42958e-015 7.28049e-015
rhumerus 64.9059 51.487 -6.03523
rradius 121.011
rwrist -88.4999
rhand 8.25787 -1.62295
rfingers 7.12502
rthumb 33.4722 -28.5223
lclavicle 7.42958e-015 7.28049e-015
lhumerus 40.3735 40.1466 9.84051
lradius 111.503
lwrist 74.2551
lhand 25.1241 31.4086
lfingers 7.12502
lthumb 49.2751 53.0038
rfemur -27.8686 3.64175 11.1507
rtibia 45.3828
rfoot -19.7139 -10.9249
rtoes -8.92373
lfemur -21.3982 2.09138 -26.955
ltibia 36.5316
lfoot -18.3385 8.73791
ltoes -17.0087
422
root 0.199454 17.4601 -2.44155 2.80734 -4.54306 6.83303
lowerback 14.0081 3.59931 -1.5852
upperback 9.16837 4.54731 -4.07996
thorax 2.08322 2.33577 -3.92239
lowerneck 10.112 -6.47502 -7.15041
upperneck 9.61662 -9.33964 4.4149
head 1.96749 -4.81132 2.75837
rclavicle -1.27471e-014 1.49585e-014
rhumerus 65.0015 51.2894 -6.64416
rradius 120.731
rwrist -88.5499
rhand 9.23891 -1.74152
rfingers 7.12502
rthumb 34.4041 -28.4347
lclavicle -1.27471e-014 1.49585e-014
lhumerus 40.8867 40.943 9.68093
lradius 110.668
lwrist 74.8343
lhand 26.5665 32.0401
lfingers 7.12502
lthumb 50.5953 52.9445
rfemur -27.7464 3.72879 11.3895
rtibia 45.1087
rfoot -19.6616 -10.9791
rtoes -8.59077
lfemur -21.4081 1.93408 -26.7038
ltibia 36.4241
lfoot -18.3046 8.79066
ltoes -16.7497
423
root 0.184563 17.4696 -2.44154 2.88535 -4.43322 6.62311
lowerback 14.016 3.78131 -1.17558
upperback 9.16319 4.83225 -3.90334
thorax 2.10732 2.49276 -3.99825
lowerneck 10.0766 -6.69801 -6.98809
upperneck 9.65496 -9.59435 4.06175
head 1.97334 -4.93201 2.60718
rclavicle 3.78188e-014 -2.3059e-014
rhumerus 64.7458 51.1574 -7.6104
rradius 120.43
rwrist -88.427
rhand 10.0183 -1.77408
rfingers 7.12502
rthumb 35.1437 -28.2965
lclavicle 3.78188e-014 -2.3059e-014
lhumerus 41.8655 41.5364 9.95006
lradius 109.795
lwrist 75.2182
lhand 28.2011 33.1625
lfingers 7.12502
lthumb 52.0826 53.2189
rfemur -27.6223 3.72362 11.668
rtibia 44.8154
rfoot -19.5796 -10.967
rtoes -8.06314
lfemur -21.4404 1.74928 -26.4177
ltibia 36.3367
lfoot -18.2352 8.86209
ltoes -16.5188
424
root 0.171483 17.478 -2.4393 2.93843 -4.33712 6.55657
lowerback 14.0472 3.95036 -0.957907
upperback 9.13879 5.07696 -3.71712
thorax 2.0804 2.61977 -3.95461
lowerneck 10.0351 -6.88881 -7.01095
upperneck 9.74573 -9.82418 3.73468
head 2.00747 -5.0469 2.49721
rclavicle -3.15074e-014 9.54166e-015
rhumerus 64.6496 51.118 -8.37413
rradius 120.237
rwrist -88.2234
rhand 10.7745 -2.15855
rfingers 7.12502
rthumb 35.8605 -28.5092
lclavicle -3.15074e-014 9.54166e-015
lhumerus 42.6599 42.0328 10.1719
lradius 108.956
lwrist 75.5394
lhand 30.0346 34.8233
lfingers 7.12502
lthumb 53.7381 53.8369
rfemur -27.467 3.66694 11.7834
rtibia 44.4981
rfoot -19.4862 -10.9762
rtoes -7.86444
lfemur -21.4525 1.58173 -26.2941
ltibia 36.2931
lfoot -18.2127 8.88544
ltoes -16.4258
425
root 0.156386 17.4861 -2.43486 2.96918 -4.218 6.52576
lowerback 14.0408 4.05403 -0.839983
upperback 9.11944 5.22626 -3.51781
thorax 2.0621 2.69366 -3.82789
lowerneck 10.0617 -7.00952 -7.24656
upperneck 9.84483 -9.98734 3.47928
head 2.04545 -5.13658 2.45162
rclavicle -1.49089e-015 3.20043e-014
rhumerus 64.8557 51.1151 -8.99445
rradius 120.124
rwrist -88.2823
rhand 11.5862 -2.8722
rfingers 7.12502
rthumb 36.6292 -29.0316
lclavicle -1.49089e-015 3.20043e-014
lhumerus 43.2108 42.4939 10.1334
lradius 108.087
lwrist 75.799
lhand 31.5481 36.0827
lfingers 7.12502
lthumb 55.0931 54.1538
rfemur -27.2623 3.58312 11.873
rtibia 44.1527
rfoot -19.3439 -11.1123
rtoes -8.32636
lfemur -21.4677 1.47909 -26.2003
ltibia 36.3071
lfoot -18.1888 8.80235
ltoes -16.1707
426
root 0.140237 17.4972 -2.43067 3.10704 -4.06171 6.14097
lowerback 13.9359 4.13787 -0.273457
upperback 9.10035 5.40267 -3.2812
thorax 2.13586 2.80102 -3.9063
lowerneck 10.101 -7.1847 -7.35448
upperneck 9.87951 -10.2111 3.22108
head 2.05538 -5.25155 2.38414
rclavicle 1.66979e-014 -1.15295e-014
rhumerus 65.041 51.061 -9.70556
rradius 120.076
rwrist -88.3688
rhand 12.138 -3.26969
rfingers 7.12502
rthumb 37.1512 -29.2949
lclavicle 1.66979e-014 -1.15295e-014
lhumerus 44.1081 42.8615 10.333
lradius 107.223
lwrist 75.9843
lhand 32.6997 37.1141
lfingers 7.12502
lthumb 56.1164 54.4133
rfemur -27.1169 3.58161 12.3559
rtibia 43.8157
rfoot -19.2489 -11.2744
rtoes -8.06673
lfemur -21.5799 1.39134 -25.7237
ltibia 36.2985
lfoot -18.0745 8.79508
ltoes -16.3513
